# xmcd CD database file
# Generated: Thu Jul 17 22:19:07 2003 by KSCD
# 
# Track frame offsets:
#       150
#       16187
#       35922
#       51076
#       63211
#       78011
#       94956
#       109454
#       121916
#       140013
#       153361
#       171134
#       190617
#       206460
#
# Disc length: 2943 seconds
#
# Revision: 2
# Processed by: cddbd v1.4PL0 Copyright (c) Steve Scherf et al.
# Submitted via: Kscd 1.2.7
#
DISCID=b70b7d0e
DTITLE=Slow Horses - Move On
DYEAR=1900
DGENRE=
TTITLE0=I'm Still Falling
TTITLE1=Slow Horses
TTITLE2=I Missed A Chance
TTITLE3=Blue Train
TTITLE4=Three Times Over You
TTITLE5=What Took You So Long
TTITLE6=Lovers 'Til The End
TTITLE7=That's Why I Got To Be With You
TTITLE8=Shelter
TTITLE9=Long Gone
TTITLE10=Follow That Road
TTITLE11=The Past
TTITLE12=All I Ever Need
TTITLE13=Day By Day
EXTD=
EXTT0=
EXTT1=
EXTT2=
EXTT3=
EXTT4=
EXTT5=
EXTT6=
EXTT7=
EXTT8=
EXTT9=
EXTT10=
EXTT11=
EXTT12=
EXTT13=
PLAYORDER=
